<svg width="58" height="58" viewBox="0 0 58 58" fill="none" xmlns="http://www.w3.org/2000/svg">
<path d="M47.6842 21.761H26.4799C23.8775 21.761 21.7678 23.8707 21.7678 26.4731V47.6774C21.7678 50.2798 23.8775 52.3895 26.4799 52.3895H47.6842C50.2866 52.3895 52.3963 50.2798 52.3963 47.6774V26.4731C52.3963 23.8707 50.2866 21.761 47.6842 21.761Z" stroke="#2C2E33" stroke-width="4.71207" stroke-linecap="round" stroke-linejoin="round"/>
<path d="M12.3437 35.8972H9.98771C8.73799 35.8972 7.53945 35.4008 6.65577 34.5171C5.77208 33.6334 5.27563 32.4349 5.27563 31.1851V9.98081C5.27563 8.73109 5.77208 7.53256 6.65577 6.64887C7.53945 5.76519 8.73799 5.26874 9.98771 5.26874H31.192C32.4418 5.26874 33.6403 5.76519 34.524 6.64887C35.4077 7.53256 35.9041 8.73109 35.9041 9.98081V12.3368" stroke="#2C2E33" stroke-width="4.71207" stroke-linecap="round" stroke-linejoin="round"/>
</svg>
